<svg xmlns="http://www.w3.org/2000/svg" width="376" height="60" viewBox="24 4 188 30" role="img" aria-labelledby="title description">
  <title id="title">OpenJob</title>
  <desc id="description">The OpenJob wordmark in ink with a blue period.</desc>
  <!-- Outlined from the production Geist 900 wordmark at -.055em tracking. -->
  <defs>
    <path id="o" d="M15.5.621c-2.895 0-5.387-.582-7.48-1.746-2.09-1.16-3.692-2.813-4.805-4.957-1.11-2.145-1.664-4.688-1.664-7.633s.555-5.496 1.664-7.652c1.113-2.156 2.71-3.824 4.797-5 2.086-1.172 4.582-1.762 7.484-1.762 2.926 0 5.426.59 7.5 1.762 2.078 1.176 3.672 2.844 4.785 5 1.11 2.156 1.664 4.707 1.664 7.652s-.555 5.488-1.664 7.633c-1.113 2.144-2.707 3.797-4.785 4.957C20.922.04 18.422.621 15.5.621Zm-.012-6.086c1.297 0 2.406-.324 3.324-.973.918-.648 1.621-1.585 2.11-2.808.492-1.223.734-2.711.734-4.469s-.242-3.254-.734-4.492c-.492-1.234-1.195-2.184-2.117-2.848-.918-.66-2.028-.992-3.325-.992-1.28 0-2.378.332-3.296.992-.918.664-1.622 1.614-2.114 2.848-.488 1.238-.734 2.734-.734 4.492s.246 3.246.738 4.469c.489 1.223 1.196 2.16 2.118 2.808.918.649 2.02.973 3.296.973Z"/>
    <path id="p" d="M2.402 0v-27.508H14.18c3.46 0 6.18.84 8.156 2.52 1.977 1.676 2.965 3.977 2.965 6.894 0 1.91-.445 3.57-1.336 4.98-.894 1.407-2.172 2.493-3.836 3.255-1.668.761-3.648 1.14-5.95 1.14H9.997V0Zm7.594-14.8h3.601c1.192 0 2.145-.278 2.867-.833.723-.555 1.086-1.375 1.086-2.46 0-1.087-.355-1.91-1.066-2.481-.711-.567-1.672-.852-2.887-.852H9.996Z"/>
    <path id="e" d="M2.402 0v-27.508h20.38v6.082H9.995v4.61h12.32v6.046H9.997v4.688H23.09V0Z"/>
    <path id="n" d="M2.402 0v-27.508h7.672l9.18 15.496v-15.496h7.594V0H19.18L9.996-14.723V0Z"/>
    <path id="j" d="M12.398.621c-2.43 0-4.449-.48-6.062-1.433-1.617-.957-2.828-2.262-3.645-3.915-.812-1.652-1.23-3.527-1.257-5.617l7.593-.312c.051 1.863.368 3.191.95 3.992.582.8 1.386 1.2 2.421 1.2 1.008 0 1.801-.352 2.383-1.063s.871-1.895.871-3.547v-17.434h7.594v17.434c0 2.172-.457 4.055-1.375 5.656-.918 1.602-2.187 2.844-3.816 3.719-1.63.879-3.512 1.32-5.657 1.32Z"/>
    <path id="b" d="M2.402 0v-27.508H13.95c3.512 0 6.23.602 8.152 1.801 1.926 1.203 2.887 3.105 2.887 5.715 0 1.11-.21 2.066-.637 2.867-.425.8-1.066 1.441-1.918 1.918-.851.477-1.898.793-3.14.95v.077c2.3.23 4.019.91 5.155 2.035 1.133 1.122 1.703 2.641 1.703 4.551 0 2.582-.957 4.496-2.867 5.735C21.375-.621 18.648 0 15.11 0Zm7.594-5.812h4.61c1.113 0 2.046-.227 2.808-.676.762-.453 1.145-1.172 1.145-2.153s-.375-1.703-1.125-2.168c-.747-.464-1.692-.699-2.829-.699h-4.609Zm0-10.653h3.64c1.087 0 1.985-.215 2.696-.64.707-.426 1.063-1.079 1.063-1.957 0-.93-.348-1.602-1.043-2.016-.7-.41-1.602-.617-2.715-.617H9.996Z"/>
    <path id="period" d="M1.238-6.973h7.594V0H1.238Z"/>
  </defs>
  <g fill="#151713">
    <use href="#o" x="23.169" y="32.919"/>
    <use href="#p" x="52.188" y="32.919"/>
    <use href="#e" x="75.86" y="32.919"/>
    <use href="#n" x="98.177" y="32.919"/>
    <use href="#j" x="124.91" y="32.919"/>
    <use href="#o" x="147.847" y="32.919"/>
    <use href="#b" x="176.866" y="32.919"/>
  </g>
  <use href="#period" x="202.561" y="32.919" fill="#6387ff"/>
</svg>
